<?xml version="1.0" standalone="no"?>
<!DOCTYPE svg PUBLIC "-//W3C//DTD SVG 20010904//EN"
 "http://www.w3.org/TR/2001/REC-SVG-20010904/DTD/svg10.dtd">
<svg version="1.0" xmlns="http://www.w3.org/2000/svg"
 width="791.000000pt" height="791.000000pt" viewBox="0 0 791.000000 791.000000"
 preserveAspectRatio="xMidYMid meet">
<metadata>
Created by potrace 1.11, written by Peter Selinger 2001-2013
</metadata>
<g transform="translate(0.000000,791.000000) scale(0.100000,-0.100000)"
fill="#000000" stroke="none">
<path d="M4006 7887 c-9 -12 -46 -65 -83 -117 -37 -52 -70 -96 -75 -98 -4 -2
-8 -8 -8 -13 0 -7 -67 -111 -93 -144 -21 -27 -231 -358 -277 -439 -14 -24 -30
-51 -36 -60 -9 -15 -68 -32 -204 -60 -49 -10 -247 -70 -285 -86 -11 -5 -63
-25 -115 -46 -52 -20 -99 -40 -104 -45 -6 -5 -18 -9 -27 -9 -10 0 -19 -3 -21
-7 -1 -5 -37 -25 -78 -46 -115 -58 -175 -91 -178 -99 -2 -5 -10 -8 -18 -8 -8
0 -14 -4 -14 -10 0 -5 -5 -10 -10 -10 -28 0 -311 -214 -423 -319 -84 -80 -193
-194 -248 -261 -30 -36 -56 -67 -60 -70 -7 -6 -123 -169 -161 -225 -117 -177
-242 -442 -315 -665 -31 -98 -79 -293 -88 -362 -2 -15 -7 -37 -10 -49 -4 -12
-8 -38 -10 -58 -1 -20 -6 -67 -11 -106 -10 -83 -11 -450 -1 -550 6 -64 11
-105 22 -175 15 -103 47 -243 78 -342 8 -27 13 -48 10 -48 -3 0 -1 -6 4 -12 6
-7 14 -26 18 -43 10 -35 10 -34 20 -60 4 -11 19 -49 33 -85 29 -77 127 -280
175 -365 28 -51 144 -229 169 -260 5 -5 27 -35 50 -65 24 -30 47 -60 53 -67 5
-6 30 -35 55 -63 25 -29 60 -68 78 -87 25 -26 31 -40 27 -61 -3 -15 -7 -47
-11 -72 -3 -25 -7 -56 -10 -70 -5 -27 -11 -69 -19 -126 -3 -20 -8 -41 -12 -47
-3 -6 -1 -7 5 -3 9 5 10 1 3 -16 -5 -13 -11 -50 -15 -83 -3 -33 -8 -71 -10
-85 -3 -14 -7 -42 -10 -64 -4 -21 -9 -43 -13 -49 -3 -6 -1 -7 5 -3 9 5 9 1 3
-16 -5 -13 -12 -50 -15 -83 -13 -115 -17 -150 -21 -180 -4 -30 -12 -98 -20
-165 -2 -19 -7 -62 -10 -95 -3 -33 -8 -71 -10 -85 -3 -14 -7 -52 -10 -85 -3
-33 -8 -76 -10 -95 -2 -19 -7 -57 -10 -85 -2 -27 -7 -70 -10 -95 -3 -25 -8
-70 -11 -100 -2 -30 -7 -66 -9 -80 -2 -14 -7 -54 -10 -90 -3 -36 -8 -83 -11
-105 -2 -22 -7 -65 -9 -95 -3 -30 -8 -68 -11 -85 l-5 -30 38 41 c21 23 52 59
70 80 61 74 236 279 243 284 3 3 13 14 21 26 12 18 45 57 144 169 11 12 45 51
75 85 30 35 66 75 78 89 13 14 43 48 65 74 49 57 71 82 141 158 28 30 83 90
121 133 39 44 90 99 113 125 24 25 81 86 125 135 99 108 107 116 113 116 3 0
41 -12 84 -26 44 -14 82 -25 85 -25 2 0 23 -6 46 -14 23 -9 51 -17 63 -20 40
-8 61 -13 101 -23 22 -6 56 -13 75 -16 19 -2 49 -7 65 -10 93 -18 185 -29 242
-30 29 -1 53 -4 53 -7 0 -7 426 -3 490 5 146 17 181 22 274 42 38 8 71 12 74
9 3 -2 10 -1 16 4 6 5 36 14 66 20 52 11 147 36 180 49 8 3 18 6 23 7 4 2 8 3
10 5 1 1 9 3 18 5 9 1 77 27 150 56 246 98 500 240 682 382 32 25 41 28 48 16
14 -20 104 -181 112 -199 4 -8 15 -28 25 -45 11 -16 34 -59 53 -95 19 -36 36
-67 39 -70 22 -21 440 -885 440 -909 0 -5 4 -12 9 -15 4 -3 7 11 5 32 -2 20
-6 80 -9 132 -3 52 -7 115 -10 140 -3 25 -7 77 -10 115 -6 89 -13 156 -21 220
-3 28 -7 66 -9 85 -2 19 -7 55 -10 80 -3 25 -8 68 -11 95 -3 28 -7 64 -11 80
-3 17 -6 41 -8 55 -6 59 -17 138 -25 180 -4 25 -8 52 -9 60 0 8 -3 29 -6 45
-3 17 -7 46 -10 65 -3 19 -12 71 -20 115 -8 44 -17 95 -20 114 -2 18 -7 41 -9
50 -3 9 -7 32 -10 51 -3 19 -8 47 -11 62 -4 23 8 45 66 124 157 211 292 460
379 694 23 63 44 120 45 125 5 21 7 25 16 57 22 69 47 168 43 168 -3 0 0 8 5
18 6 11 13 41 17 68 3 27 7 51 9 54 2 3 6 30 10 60 4 30 8 57 10 60 18 29 26
505 12 640 -4 36 -9 83 -11 105 -2 22 -14 90 -26 150 -12 61 -24 121 -26 134
-3 14 -7 28 -10 33 -3 4 -7 18 -9 29 -15 78 -75 250 -137 396 -45 106 -159
323 -194 370 -13 17 -24 34 -24 37 0 18 -205 288 -271 357 -116 123 -162 169
-214 214 -31 28 -64 57 -73 66 -28 26 -154 123 -207 159 -27 19 -51 37 -53 42
-2 4 -8 8 -13 8 -5 0 -41 21 -81 47 -94 60 -267 150 -388 201 -89 38 -286 110
-320 117 -8 1 -35 9 -60 16 -25 7 -51 14 -59 15 -59 11 -111 28 -119 37 -5 7
-33 57 -62 112 -29 55 -56 105 -60 110 -9 12 -51 86 -93 165 -16 30 -38 67
-48 82 -11 14 -19 28 -19 31 0 3 -56 97 -124 211 -121 203 -124 205 -140 183z"/>
</g>
</svg>
